<svg width="57" height="81" viewBox="0 0 57 81" fill="none" xmlns="http://www.w3.org/2000/svg">
<g clip-path="url(#clip0_133_177)">
<path d="M36.5494 68.5682H32.9869C32.0625 68.5682 31.3115 67.8107 31.3115 66.8783V42.2481C31.3115 41.3157 32.0625 40.5581 32.9869 40.5581H34.3734C34.7007 40.5581 34.9896 40.2862 34.9896 39.956C34.9896 39.82 34.9511 39.7035 34.874 39.5869L32.7751 36.5567C32.6595 36.4013 32.4669 36.3042 32.2744 36.2848H24.3598C23.3585 36.2848 22.5497 35.4689 22.5497 34.4394C22.5497 34.0704 22.6652 33.7013 22.8771 33.3905L24.899 30.3409C25.2457 29.8358 25.8041 29.5445 26.4011 29.5445H28.8082C29.9443 29.5251 30.8879 30.3992 30.9649 31.5452C31.0034 32.1279 30.7916 32.7107 30.3872 33.138C29.9828 33.5653 29.4436 33.7984 28.8467 33.7984C28.5193 33.7984 28.2497 33.5265 28.2497 33.1963C28.2497 32.8661 28.5193 32.5941 28.8467 32.5941C29.3473 32.5941 29.7325 32.1862 29.7325 31.7006C29.7325 31.6812 29.7325 31.6617 29.7325 31.6423C29.6747 31.1567 29.2703 30.7876 28.7889 30.8071H26.3818C26.1892 30.8071 25.9967 30.9042 25.8811 31.079L23.8784 34.1092C23.6859 34.3812 23.7436 34.7697 24.0132 34.9639C24.1095 35.0416 24.2443 35.0805 24.3791 35.0805H32.2936C32.8906 35.0805 33.449 35.3718 33.7957 35.8574L35.8946 38.8876C36.4723 39.7229 36.2605 40.8689 35.4325 41.4517C35.1244 41.6653 34.7585 41.7819 34.3926 41.7819H33.0061C32.7558 41.7819 32.544 41.9956 32.544 42.2481V66.8977C32.544 67.1502 32.7558 67.3639 33.0061 67.3639H36.5686C36.896 67.3639 37.1656 67.092 37.1656 66.7617V61.6725C37.3196 56.7193 39.6305 52.0963 43.5011 49.0466C43.5974 48.9689 43.7129 48.8718 43.8092 48.7941C49.9328 44.0157 53.5146 36.6538 53.5531 28.8452C53.5916 22.0272 50.9342 15.5783 46.0429 10.6833C41.248 5.88549 34.9511 3.24376 28.3075 3.24376H27.9801C14.25 3.41858 3.08113 14.8402 3.08113 28.6898C3.08113 29.02 2.81153 29.3114 2.48417 29.3114C2.1568 29.3114 1.88721 29.0394 1.88721 28.6898C1.88721 14.102 13.5183 2.21426 27.9801 2.02002H28.3267C35.2977 2.02002 41.8835 4.77829 46.9095 9.80923C52.0125 14.9179 54.8048 21.6776 54.7663 28.8452C54.747 37.0423 50.9727 44.7538 44.5409 49.7653L44.5217 49.7848C44.4254 49.8625 44.3291 49.9207 44.2328 49.9984C40.6511 52.815 38.4943 57.1078 38.3595 61.692V66.7617C38.3595 67.7524 37.5507 68.5682 36.5494 68.5682Z" fill="white" stroke="white" stroke-width="2" stroke-miterlimit="10"/>
<path d="M30.6954 78.3583H25.4768C25.1495 78.3583 24.8799 78.0864 24.8799 77.7367C24.8799 77.4065 25.1495 77.1346 25.4768 77.1346H30.6954C31.0228 77.1346 31.2924 76.8626 31.2924 76.513C31.2924 76.1828 31.0228 75.9108 30.6954 75.9108H19.8924C18.891 75.9108 18.063 75.095 18.063 74.0655C18.063 73.0554 18.8718 72.2202 19.8924 72.2202H36.5302C36.8576 72.2202 37.1272 71.9482 37.1272 71.5986C37.1272 71.2684 36.8576 70.9964 36.5302 70.9964H19.8346C18.8525 70.9964 18.063 70.2 18.063 69.2094C18.063 69.1899 18.063 69.1511 18.063 69.1317C18.1015 68.1216 18.9295 67.3252 19.9309 67.3252L24.2637 67.364C24.591 67.364 24.8606 67.0921 24.8606 66.7619V42.2482C24.8606 41.9957 24.6488 41.782 24.3985 41.782H22.0684C21.1633 41.782 20.4508 41.0439 20.4508 40.1504C20.4508 39.7619 20.5856 39.3928 20.836 39.082L21.6833 38.0914C21.8951 37.8389 22.2802 37.8 22.5306 38.0137C22.7809 38.2274 22.8194 38.6159 22.6076 38.8684L22.5883 38.8878L21.741 39.8784C21.587 40.0533 21.6062 40.3058 21.7795 40.4612C21.8566 40.5194 21.9529 40.5583 22.0491 40.5583H24.3985C25.3228 40.5583 26.0738 41.3158 26.0738 42.2482V66.8007C26.0738 67.8108 25.265 68.6266 24.2444 68.6461H24.2637L19.9309 68.6072C19.5843 68.6072 19.3147 68.8792 19.2954 69.2288C19.2762 69.5396 19.5072 69.8115 19.8154 69.831C19.8346 69.831 19.8346 69.831 19.8539 69.831H36.5495C37.5508 69.831 38.3789 70.6468 38.3789 71.6763C38.3789 72.6864 37.5701 73.5216 36.5495 73.5216H19.9116C19.5843 73.5216 19.3147 73.7936 19.3147 74.1432C19.3147 74.4734 19.5843 74.7453 19.9116 74.7453H30.7147C31.716 74.7453 32.5441 75.5612 32.5441 76.5907C32.5248 77.5425 31.6968 78.3583 30.6954 78.3583Z" fill="white" stroke="white" stroke-width="2" stroke-miterlimit="10"/>
</g>
<defs>
<clipPath id="clip0_133_177">
<rect width="57" height="81" fill="white"/>
</clipPath>
</defs>
</svg>
